<svg width="81" height="16" viewBox="0 0 81 16" fill="none" xmlns="http://www.w3.org/2000/svg">
<path d="M6.32875 13.18C4.58875 13.18 3.23275 12.694 2.26075 11.722C1.28875 10.738 0.80275 9.334 0.80275 7.51V0.399999H3.14275V7.42C3.14275 9.892 4.21075 11.128 6.34675 11.128C8.47075 11.128 9.53275 9.892 9.53275 7.42V0.399999H11.8368V7.51C11.8368 9.334 11.3508 10.738 10.3788 11.722C9.41875 12.694 8.06875 13.18 6.32875 13.18ZM26.3099 0.399999V13H24.3839L17.4359 4.468V13H15.1139V0.399999H17.0399L23.9879 8.932V0.399999H26.3099ZM29.6861 0.399999H32.0261V13H29.6861V0.399999ZM48.7362 14.26C48.3162 14.752 47.8242 15.124 47.2602 15.376C46.7082 15.628 46.1022 15.754 45.4422 15.754C44.5782 15.754 43.7862 15.556 43.0662 15.16C42.3462 14.776 41.5242 14.104 40.6002 13.144C39.4362 13.048 38.3922 12.712 37.4682 12.136C36.5442 11.548 35.8242 10.786 35.3082 9.85C34.7922 8.902 34.5342 7.852 34.5342 6.7C34.5342 5.476 34.8282 4.372 35.4162 3.388C36.0042 2.392 36.8142 1.618 37.8462 1.066C38.8782 0.501999 40.0362 0.219999 41.3202 0.219999C42.6042 0.219999 43.7622 0.501999 44.7942 1.066C45.8262 1.618 46.6362 2.386 47.2242 3.37C47.8122 4.354 48.1062 5.464 48.1062 6.7C48.1062 7.696 47.9082 8.62 47.5122 9.472C47.1162 10.312 46.5642 11.032 45.8562 11.632C45.1482 12.22 44.3262 12.646 43.3902 12.91C43.7382 13.282 44.0802 13.552 44.4162 13.72C44.7522 13.888 45.1122 13.972 45.4962 13.972C46.3242 13.972 47.0442 13.636 47.6562 12.964L48.7362 14.26ZM36.8922 6.7C36.8922 7.54 37.0842 8.302 37.4682 8.986C37.8522 9.658 38.3802 10.186 39.0522 10.57C39.7242 10.942 40.4802 11.128 41.3202 11.128C42.1602 11.128 42.9162 10.942 43.5882 10.57C44.2602 10.186 44.7882 9.658 45.1722 8.986C45.5562 8.302 45.7482 7.54 45.7482 6.7C45.7482 5.86 45.5562 5.104 45.1722 4.432C44.7882 3.748 44.2602 3.22 43.5882 2.848C42.9162 2.464 42.1602 2.272 41.3202 2.272C40.4802 2.272 39.7242 2.464 39.0522 2.848C38.3802 3.22 37.8522 3.748 37.4682 4.432C37.0842 5.104 36.8922 5.86 36.8922 6.7ZM56.0045 13.18C54.2645 13.18 52.9085 12.694 51.9365 11.722C50.9645 10.738 50.4785 9.334 50.4785 7.51V0.399999H52.8185V7.42C52.8185 9.892 53.8865 11.128 56.0225 11.128C58.1465 11.128 59.2085 9.892 59.2085 7.42V0.399999H61.5125V7.51C61.5125 9.334 61.0265 10.738 60.0545 11.722C59.0945 12.694 57.7445 13.18 56.0045 13.18ZM64.7897 0.399999H67.1297V13H64.7897V0.399999ZM80.3297 11.02V13H69.5837V11.434L76.9997 2.38H69.7097V0.399999H80.0957V1.966L72.6797 11.02H80.3297Z" fill="#FFFBFB"/>
</svg>
